# AST/ASF file generated using VICON BodyLanguage
# -----------------------------------------------
:version 1.10
:name VICON
:units
  mass 1.0
  length 0.45
  angle deg
:documentation
   .ast/.asf automatically generated from VICON data using
   VICON BodyBuilder and BodyLanguage model FoxedUp or BRILLIANT.MOD
:root
   order TX TY TZ RX RY RZ
   axis XYZ
   position 0 0 0  
   orientation 0 0 0 
:bonedata
  begin
     id 1 
     name lhipjoint
     direction 0.537252 -0.787203 0.302774 
     length 2.29576 
     axis 0 0 0  XYZ
  end
  begin
     id 2 
     name lfemur
     direction 0.34202 -0.939693 0  
     length 7.31114  
     axis 0 0 20  XYZ
    dof rx ry rz
    limits (-160.0 20.0)
           (-70.0 70.0)
           (-60.0 70.0)
  end
  begin
     id 3 
     name ltibia
     direction 0.34202 -0.939693 0   
     length 8.36008   
     axis 0 0 20   XYZ
    dof rx
    limits (-10.0 170.0)
  end
  begin
     id 4 
     name lfoot
     direction 0.0969116 -0.266263 0.959016   
     length 2.16704   
     axis -90 7.62852e-016 20   XYZ
    dof rx rz
    limits (-45.0 90.0)
           (-70.0 20.0)
  end
  begin
     id 5 
     name ltoes
     direction 1.53563e-011 -4.21779e-011 1   
     length 1.08338   
     axis -90 7.62852e-016 20   XYZ
    dof rx
    limits (-90.0 20.0)
  end
  begin
     id 6 
     name rhipjoint
     direction -0.588228 -0.754791 0.290308   
     length 2.39434  
     axis 0 0 0  XYZ 
  end
  begin
     id 7 
     name rfemur
     direction -0.34202 -0.939693 0   
     length 7.45207   
     axis 0 0 -20   XYZ
    dof rx ry rz
    limits (-160.0 20.0)
           (-70.0 70.0)
           (-70.0 60.0)
  end
  begin
     id 8 
     name rtibia
     direction -0.34202 -0.939693 0   
     length 8.03565   
     axis 0 0 -20   XYZ
    dof rx
    limits (-10.0 170.0)
 end
 begin
     id 9 
     name rfoot
     direction -0.107009 -0.294004 0.949795   
     length 2.11509  
     axis -90 -7.62852e-016 -20   XYZ
    dof rx rz
    limits (-45.0 90.0)
           (-20.0 70.0)
  end
  begin
     id 10 
     name rtoes
     direction -1.53533e-011 -4.22004e-011 1   
     length 1.05493   
     axis -90 -7.62852e-016 -20   XYZ
    dof rx
    limits (-90.0 20.0)
  end
  begin
     id 11 
     name lowerback
     direction -0.0115208 0.997969 -0.0626515   
     length 2.03153   
     axis 0 0 0   XYZ
    dof rx ry rz
    limits (-20.0 45.0)
           (-30.0 30.0)
           (-30.0 30.0)
  end
  begin
     id 12 
     name upperback
     direction -0.00423475 0.999974 -0.00583614   
     length 2.03619   
     axis 0 0 0   XYZ
    dof rx ry rz
    limits (-20.0 45.0)
           (-30.0 30.0)
           (-30.0 30.0)
  end
  begin
     id 13 
     name thorax
     direction 0.00289429 0.999728 0.0231573   
     length 2.03921   
     axis 0 0 0   XYZ
    dof rx ry rz
    limits (-20.0 45.0)
           (-30.0 30.0)
           (-30.0 30.0)
  end
  begin
     id 14 
     name lowerneck
     direction 0.0188995 0.987777 0.154721   
     length 1.78836   
     axis 0 0 0   XYZ
    dof rx ry rz
    limits (-20.0 45.0)
           (-30.0 30.0)
           (-30.0 30.0)
  end
  begin
     id 15 
     name upperneck
     direction -0.00612612 0.992995 -0.118   
     length 1.81789   
     axis 0 0 0   XYZ
    dof rx ry rz
    limits (-20.0 45.0)
           (-30.0 30.0)
           (-30.0 30.0)
  end
  begin
     id 16
     name head
     direction -0.00420226 0.998397 -0.0564482  
     length 1.82234  
     axis 0 0 0   XYZ
    dof rx ry rz
    limits (-20.0 45.0)
           (-30.0 30.0)
           (-30.0 30.0)
  end
  begin
     id 17 
     name lclavicle
     direction 0.916488 0.396539 0.0529676  
     length 3.51732  
     axis 0 0 0   XYZ
    dof ry rz
    limits (-20.0 10.0)
           (0.0 20.0)
  end
  begin
     id 18 
     name lhumerus
     direction 1 -4.4896e-011 8.36962e-028   
     length 5.45077   
     axis 180 -30 -90   XYZ
    dof rx ry rz
    limits (-60.0 90.0)
           (-90.0 90.0)
           (-90.0 90.0)
  end
  begin
     id 19
     name lradius
     direction 1 -4.48962e-011 3.01407e-027   
     length 3.05488   
     axis 180 -30 -90   XYZ
    dof rx
    limits (-10.0 170.0)
  end
  begin
     id 20
     name lwrist
     direction 1 -4.49002e-011 4.72961e-027   
     length 1.52744   
     axis -2.72261e-015 90 90   XYZ
    dof ry
    limits (-180.0 0.0)
 end
  begin
     id 21 
     name lhand
     direction 1 -4.4899e-011 9.45681e-027   
     length 0.638818   
     axis -6.0311e-015 90 90   XYZ
    dof rx rz
    limits (-90.0 90.0)
           (-45.0 45.0)
  end
  begin
     id 22 
     name lfingers
     direction 1 -4.48871e-011 1.88632e-026   
     length 0.515032   
     axis -1.20625e-014 90 90   XYZ
    dof rx
    limits (0.0 90.0)
  end
  begin
     id 23
     name lthumb
     direction 0.707107 -6.34964e-011 0.707107   
     length 0.739485   
     axis -90 45 6.32835e-014   XYZ
    dof rx rz
    limits (-45.0 45.0)
           (-45.0 45.0)
  end
  begin
     id 24 
     name rclavicle
     direction -0.949427 0.303202 0.0815894   
     length 3.76167  
     axis 0 0 0   XYZ 
    dof ry rz
    limits (-10.0 20.0)
           (-20.0 0.0)
  end
  begin
     id 25 
     name rhumerus
     direction -1 -4.48971e-011 -6.43969e-018  
     length 4.88702   
     axis 180 30 90   XYZ
    dof rx ry rz
    limits (-90.0 60.0)
           (-90.0 90.0)
           (-90.0 90.0)
  end
  begin
     id 26 
     name rradius
     direction -1 -4.48987e-011 5.46662e-027   
     length 3.22603   
     axis 180 30 90   XYZ
    dof rx
    limits (-10.0 170.0)
  end
  begin
     id 27 
     name rwrist
     direction -1 -4.48956e-011 4.72476e-027   
     length 1.61302   
     axis -2.72261e-015 -90 -90   XYZ
    dof ry
    limits (-180.0 0.0)
  end
  begin
     id 28
     name rhand
     direction -1 -4.4889e-011 9.43571e-027   
     length 0.716293   
     axis -6.0311e-015 -90 -90   XYZ
    dof rx rz
    limits (-90.0 90.0)
           (-45.0 45.0)
  end
  begin
     id 29
     name rfingers
     direction -1 -4.48887e-011 1.88701e-026   
     length 0.577494   
     axis -1.20625e-014 -90 -90   XYZ
    dof rx
    limits (0.0 90.0)
  end
  begin
     id 30
     name rthumb
     direction -0.707107 -6.34825e-011 0.707107   
     length 0.829169   
     axis -90 -45 -6.32835e-014   XYZ
    dof rx rz
    limits (-45.0 45.0)
           (-45.0 45.0)
  end
:hierarchy
  begin
    root lhipjoint rhipjoint lowerback
    lhipjoint lfemur
    lfemur ltibia
    ltibia lfoot
    lfoot ltoes
    rhipjoint rfemur
    rfemur rtibia
    rtibia rfoot
    rfoot rtoes
    lowerback upperback
    upperback thorax
    thorax lowerneck lclavicle rclavicle
    lowerneck upperneck
    upperneck head
    lclavicle lhumerus
    lhumerus lradius
    lradius lwrist
    lwrist lhand lthumb
    lhand lfingers
    rclavicle rhumerus
    rhumerus rradius
    rradius rwrist
    rwrist rhand rthumb
    rhand rfingers
  end

#!OML:ASF F:\VICON\USERDATA\INSTALL\rory3\rory3.ASF
:FULLY-SPECIFIED
:DEGREES
162
root -0.306693 15.5407 -0.53109 235.612 112.662 198.353
lowerback 25.7227 -0.848812 5.97183
upperback 7.60551 1.11499 3.18613
thorax -5.78919 0.695993 -0.280042
lowerneck -17.7913 -11.5476 -6.00806
upperneck 9.82536 -16.1236 13.0783
head 7.52243 -6.94749 3.16582
rclavicle 3.33958e-014 9.46215e-014
rhumerus 11.7647 -5.88383 -64.3613
rradius 70.8966
rwrist -188
rhand -24.4162 -5.42606
rfingers 7.12502
rthumb 2.07543 -35.3957
lclavicle 3.33958e-014 9.46215e-014
lhumerus -32.8926 -18.9598 78.2969
lradius 99.4835
lwrist 12.3276
lhand -13.5717 25.4943
lfingers 7.12502
lthumb 12.542 55.0979
rfemur -88.4679 -14.0303 17.3099
rtibia 70.4806
rfoot -16.6231 20.2772
rtoes -7.33569
lfemur -89.4867 25.8508 -53.3756
ltibia 77.5707
lfoot -21.0404 -15.72
ltoes -7.23116
163
root -0.303997 15.4728 -0.522412 235.443 112.636 198.176
lowerback 25.9832 -0.866104 6.05448
upperback 7.65176 1.13811 3.17575
thorax -5.86299 0.707778 -0.346273
lowerneck -17.9263 -11.5694 -5.96699
upperneck 9.80164 -16.1544 13.0598
head 7.53499 -6.95811 3.14335
rclavicle -4.45278e-014 1.59028e-015
rhumerus 12.5336 -6.15093 -64.4313
rradius 70.3236
rwrist -187.945
rhand -24.4071 -5.43599
rfingers 7.12502
rthumb 2.08423 -35.4056
lclavicle -4.45278e-014 1.59028e-015
lhumerus -32.6636 -18.7828 78.0275
lradius 99.7582
lwrist 11.9354
lhand -13.3756 25.4551
lfingers 7.12502
lthumb 12.7311 55.047
rfemur -89.115 -14.1688 17.701
rtibia 71.4137
rfoot -16.5426 20.5736
rtoes -6.27925
lfemur -90.211 26.0084 -53.3206
ltibia 78.6903
lfoot -20.8799 -16.055
ltoes -5.751
164
root -0.30003 15.4031 -0.512773 235.483 112.594 198.242
lowerback 26.2346 -0.880296 6.1171
upperback 7.66544 1.16036 3.16639
thorax -5.96872 0.717378 -0.399956
lowerneck -17.9873 -11.6119 -5.91803
upperneck 9.80386 -16.2136 13.0044
head 7.54187 -6.98706 3.10671
rclavicle -2.70347e-014 -3.33958e-014
rhumerus 13.2258 -6.51271 -64.5108
rradius 69.7177
rwrist -187.904
rhand -24.4156 -5.48406
rfingers 7.12502
rthumb 2.07599 -35.4537
lclavicle -2.70347e-014 -3.33958e-014
lhumerus -32.4701 -18.7966 77.879
lradius 99.9876
lwrist 11.7255
lhand -13.1087 25.7822
lfingers 7.12502
lthumb 12.9884 55.3579
rfemur -89.7788 -14.4105 18.0539
rtibia 72.3905
rfoot -16.4567 20.8897
rtoes -5.29289
lfemur -90.8798 26.1231 -53.3119
ltibia 79.7698
lfoot -20.7024 -16.4007
ltoes -4.74118
165
root -0.296872 15.3265 -0.500019 235.509 112.639 198.287
lowerback 26.3552 -0.877777 6.1778
upperback 7.69219 1.18018 3.06602
thorax -5.99314 0.727387 -0.551311
lowerneck -17.8554 -11.6313 -5.86112
upperneck 9.74927 -16.251 13.0079
head 7.5013 -7.01134 3.10052
rclavicle -4.77083e-014 1.90833e-014
rhumerus 13.8472 -6.96046 -64.6991
rradius 69.068
rwrist -187.9
rhand -24.3576 -5.49777
rfingers 7.12502
rthumb 2.13198 -35.4669
lclavicle -4.77083e-014 1.90833e-014
lhumerus -32.3254 -18.93 77.6212
lradius 100.13
lwrist 11.7508
lhand -13.1386 25.7926
lfingers 7.12502
lthumb 12.9596 55.3702
rfemur -90.4791 -14.5635 18.2786
rtibia 73.4162
rfoot -16.3751 21.2846
rtoes -4.21201
lfemur -91.573 26.25 -53.3934
ltibia 80.8316
lfoot -20.5829 -16.5524
ltoes -4.54407
166
root -0.294552 15.2504 -0.490366 235.555 112.668 198.335
lowerback 26.5694 -0.880008 6.2206
upperback 7.74013 1.20241 2.99789
thorax -6.0408 0.73921 -0.658492
lowerneck -17.9557 -11.6952 -5.8297
upperneck 9.65988 -16.3434 13.0687
head 7.50122 -7.04996 3.09729
rclavicle 9.54166e-015 -4.37326e-014
rhumerus 14.5713 -7.38934 -64.8106
rradius 68.4562
rwrist -187.922
rhand -24.3114 -5.30816
rfingers 7.12502
rthumb 2.17662 -35.2768
lclavicle 9.54166e-015 -4.37326e-014
lhumerus -32.0325 -18.9578 77.3525
lradius 100.159
lwrist 11.5077
lhand -13.4321 25.3856
lfingers 7.12502
lthumb 12.6767 54.9808
rfemur -91.1892 -14.7137 18.4873
rtibia 74.4548
rfoot -16.4494 21.5585
rtoes -3.55147
lfemur -92.2634 26.2956 -53.4417
ltibia 81.916
lfoot -20.6799 -16.4756
ltoes -5.08265
